<svg width="16" height="16" viewBox="0 0 16 16" fill="none" xmlns="http://www.w3.org/2000/svg">
<path d="M11.8013 9.50858V14.1029" stroke="#7B7B7B" stroke-width="1.5" stroke-linecap="round" stroke-linejoin="round"/>
<path d="M14.1032 11.8019H9.50893" stroke="#7B7B7B" stroke-width="1.5" stroke-linecap="round" stroke-linejoin="round"/>
<path d="M4.94494 9.51619H3.42113C2.57955 9.51619 1.89732 10.1984 1.89732 11.04V12.5638C1.89732 13.4054 2.57955 14.0876 3.42113 14.0876H4.94494C5.78652 14.0876 6.46875 13.4054 6.46875 12.5638V11.04C6.46875 10.1984 5.78652 9.51619 4.94494 9.51619Z" stroke="#7B7B7B" stroke-width="1.5" stroke-linecap="round" stroke-linejoin="round"/>
<path d="M4.94494 1.89711H3.42113C2.57955 1.89711 1.89732 2.57934 1.89732 3.42092V4.94473C1.89732 5.78631 2.57955 6.46854 3.42113 6.46854H4.94494C5.78652 6.46854 6.46875 5.78631 6.46875 4.94473V3.42092C6.46875 2.57934 5.78652 1.89711 4.94494 1.89711Z" stroke="#7B7B7B" stroke-width="1.5" stroke-linecap="round" stroke-linejoin="round"/>
<path d="M12.5632 1.89711H11.0394C10.1979 1.89711 9.51562 2.57934 9.51562 3.42092V4.94473C9.51562 5.78631 10.1979 6.46854 11.0394 6.46854H12.5632C13.4048 6.46854 14.0871 5.78631 14.0871 4.94473V3.42092C14.0871 2.57934 13.4048 1.89711 12.5632 1.89711Z" stroke="#7B7B7B" stroke-width="1.5" stroke-linecap="round" stroke-linejoin="round"/>
</svg>
