<svg width="16" height="16" viewBox="0 0 16 16" fill="none" xmlns="http://www.w3.org/2000/svg">
<path d="M12.25 4.75C12.25 4.94778 12.1914 5.14112 12.0815 5.30557C11.9716 5.47002 11.8154 5.59819 11.6327 5.67388C11.45 5.74957 11.2489 5.76937 11.0549 5.73079C10.8609 5.6922 10.6827 5.59696 10.5429 5.45711C10.403 5.31725 10.3078 5.13907 10.2692 4.94509C10.2306 4.75111 10.2504 4.55004 10.3261 4.36732C10.4018 4.18459 10.53 4.02841 10.6944 3.91853C10.8589 3.80865 11.0522 3.75 11.25 3.75C11.5152 3.75 11.7696 3.85536 11.9571 4.04289C12.1446 4.23043 12.25 4.48478 12.25 4.75ZM15.25 6.17125C15.2009 7.531 14.6278 8.81905 13.6505 9.76572C12.6731 10.7124 11.3675 11.2443 10.0069 11.25H10C9.49971 11.2508 9.00192 11.1796 8.52188 11.0387L8.03063 11.5306C7.96092 11.6003 7.87818 11.6555 7.78714 11.6931C7.69609 11.7307 7.59852 11.7501 7.5 11.75H6.75V12.5C6.75 12.6989 6.67098 12.8897 6.53033 13.0303C6.38968 13.171 6.19891 13.25 6 13.25H5.25V14C5.25 14.1989 5.17098 14.3897 5.03033 14.5303C4.88968 14.671 4.69891 14.75 4.5 14.75H2.5C2.16848 14.75 1.85054 14.6183 1.61612 14.3839C1.3817 14.1495 1.25 13.8315 1.25 13.5V11.7069C1.24956 11.5427 1.2817 11.38 1.34457 11.2283C1.40744 11.0766 1.49978 10.9389 1.61625 10.8231L4.96125 7.47813C4.74939 6.74959 4.69795 5.9838 4.81048 5.23348C4.923 4.48316 5.19682 3.76614 5.61307 3.13181C6.02933 2.49747 6.57812 1.9609 7.22167 1.55903C7.86521 1.15717 8.58821 0.899565 9.34087 0.803962C10.0935 0.708359 10.858 0.777028 11.5816 1.00524C12.3051 1.23345 12.9707 1.61579 13.5323 2.12591C14.0939 2.63603 14.5383 3.26182 14.8348 3.96019C15.1314 4.65855 15.273 5.41289 15.25 6.17125ZM12.6519 3.34812C12.2901 2.98307 11.8565 2.697 11.3785 2.50799C10.9006 2.31898 10.3886 2.23113 9.875 2.25C7.875 2.3125 6.25 3.99312 6.25 5.99312C6.24845 6.46791 6.33755 6.93862 6.5125 7.38C6.57147 7.51779 6.58781 7.67009 6.5594 7.81725C6.53099 7.96441 6.45915 8.09968 6.35313 8.20562L2.75 11.8125V13.25H3.75V12.5C3.75 12.3011 3.82902 12.1103 3.96967 11.9697C4.11032 11.829 4.30109 11.75 4.5 11.75H5.25V11C5.25 10.8011 5.32902 10.6103 5.46967 10.4697C5.61032 10.329 5.80109 10.25 6 10.25H7.1875L7.79063 9.64688C7.89662 9.54073 8.032 9.4688 8.17929 9.44039C8.32658 9.41198 8.47901 9.42839 8.61688 9.4875C9.05703 9.66215 9.52646 9.75124 10 9.75H10.005C12.005 9.75 13.6844 8.12063 13.7481 6.125C13.767 5.61154 13.6793 5.09974 13.4906 4.62183C13.302 4.14392 13.0164 3.71025 12.6519 3.34812Z" fill="#7B7B7B"/>
</svg>
