<svg width="14" height="14" viewBox="0 0 14 14" fill="none" xmlns="http://www.w3.org/2000/svg">
<path d="M12.4224 5.12902L7.85096 1.12902C7.57289 0.884728 7.21539 0.75 6.84525 0.75C6.4751 0.75 6.11761 0.884728 5.83953 1.12902L1.26811 5.12902C1.1046 5.27267 0.973755 5.44967 0.884387 5.64812C0.795019 5.84657 0.749199 6.06186 0.750011 6.2795V10.9195C0.750011 11.3236 0.910554 11.7112 1.19632 11.997C1.48209 12.2828 1.86968 12.4433 2.27382 12.4433H3.79763C4.20177 12.4433 4.58936 12.2828 4.87513 11.997C5.16089 11.7112 5.32144 11.3236 5.32144 10.9195V8.63379C5.32144 8.22965 5.48198 7.84206 5.76775 7.55629C6.05352 7.27052 6.44111 7.10998 6.84525 7.10998C7.24939 7.10998 7.63697 7.27052 7.92274 7.55629C8.20851 7.84206 8.36906 8.22965 8.36906 8.63379V10.9195C8.36906 11.3236 8.5296 11.7112 8.81537 11.997C9.10114 12.2828 9.48873 12.4433 9.89287 12.4433H11.4167C11.8208 12.4433 12.2084 12.2828 12.4942 11.997C12.7799 11.7112 12.9405 11.3236 12.9405 10.9195V6.2795C12.9413 6.06186 12.8955 5.84657 12.8061 5.64812C12.7167 5.44967 12.5859 5.27267 12.4224 5.12902Z" stroke="#7B7B7B" stroke-width="1.5" stroke-linecap="round" stroke-linejoin="round"/>
</svg>
