<svg width="16" height="16" viewBox="0 0 16 16" fill="none" xmlns="http://www.w3.org/2000/svg">
<g clip-path="url(#clip0_2633_3013)">
<path d="M7.2381 4.19055H11.8095C12.2137 4.19055 12.6013 4.3511 12.887 4.63687C13.1728 4.92263 13.3333 5.31022 13.3333 5.71436V11.0477L9.52381 14.8572H7.2381C6.83396 14.8572 6.44637 14.6967 6.1606 14.4109C5.87483 14.1251 5.71429 13.7375 5.71429 13.3334V5.71436C5.71429 5.31022 5.87483 4.92263 6.1606 4.63687C6.44637 4.3511 6.83396 4.19055 7.2381 4.19055Z" stroke="#7B7B7B" stroke-width="1.5" stroke-linecap="round" stroke-linejoin="round"/>
<path d="M10.2865 4.19044V2.66663C10.2865 2.26249 10.1259 1.87491 9.84015 1.58914C9.55438 1.30337 9.16679 1.14282 8.76265 1.14282H4.19122C3.78708 1.14282 3.39949 1.30337 3.11373 1.58914C2.82796 1.87491 2.66741 2.26249 2.66741 2.66663V10.2857C2.66741 10.6898 2.82796 11.0774 3.11373 11.3632C3.39949 11.6489 3.78708 11.8095 4.19122 11.8095H4.95313" stroke="#7B7B7B" stroke-width="1.5" stroke-linecap="round" stroke-linejoin="round"/>
<path d="M13.3341 11.0476H11.0484C10.6442 11.0476 10.2566 11.2082 9.97087 11.4939C9.6851 11.7797 9.52455 12.1673 9.52455 12.5714V14.8571" stroke="#7B7B7B" stroke-width="1.5" stroke-linecap="round" stroke-linejoin="round"/>
</g>
<defs>
<clipPath id="clip0_2633_3013">
<rect width="16" height="16" fill="white"/>
</clipPath>
</defs>
</svg>
