<svg width="16" height="16" viewBox="0 0 16 16" fill="none" xmlns="http://www.w3.org/2000/svg">
<path d="M1.6 4.38401V3.20001C1.6 2.77566 1.76857 2.36869 2.06863 2.06864C2.36869 1.76858 2.77565 1.60001 3.2 1.60001H4.384" stroke="#7B7B7B" stroke-width="1.68" stroke-linecap="round" stroke-linejoin="round"/>
<path d="M14.44 4.38401V3.20001C14.44 2.77566 14.2714 2.36869 13.9714 2.06864C13.6713 1.76858 13.2644 1.60001 12.84 1.60001H11.616" stroke="#7B7B7B" stroke-width="1.68" stroke-linecap="round" stroke-linejoin="round"/>
<path d="M1.6 11.6156V12.8396C1.6 13.264 1.76857 13.6709 2.06863 13.971C2.36869 14.2711 2.77565 14.4396 3.2 14.4396H4.384" stroke="#7B7B7B" stroke-width="1.68" stroke-linecap="round" stroke-linejoin="round"/>
<path d="M14.44 11.6156V12.8396C14.44 13.264 14.2714 13.6709 13.9714 13.971C13.6713 14.2711 13.2644 14.4396 12.84 14.4396H11.616" stroke="#7B7B7B" stroke-width="1.68" stroke-linecap="round" stroke-linejoin="round"/>
<path d="M8 4.77499V11.223" stroke="#7B7B7B" stroke-width="1.68" stroke-linecap="round" stroke-linejoin="round"/>
<path d="M4.96797 4.77499H11.032" stroke="#7B7B7B" stroke-width="1.68" stroke-linecap="round" stroke-linejoin="round"/>
</svg>
