<svg width="16" height="16" viewBox="0 0 16 16" fill="none" xmlns="http://www.w3.org/2000/svg">
<g clip-path="url(#clip0_2633_1006)">
<path d="M2.15848 4.63016L8.0012 7.48621V14.7395" stroke="#7B7B7B" stroke-width="1.5" stroke-linecap="round" stroke-linejoin="round"/>
<path d="M8 14.7396V7.48629L13.8514 4.63895" stroke="#7B7B7B" stroke-width="1.5" stroke-linecap="round" stroke-linejoin="round"/>
<path d="M2.77704 4.01198L7.13078 1.53034C7.39552 1.3775 7.69584 1.29703 8.00153 1.29703C8.30723 1.29703 8.60754 1.3775 8.87228 1.53034L13.226 4.01198C13.4918 4.16541 13.7123 4.38634 13.8652 4.65241C14.0181 4.91847 14.098 5.22021 14.0968 5.52708V10.7516C14.0974 11.0714 14.01 11.3852 13.8442 11.6586C13.6783 11.932 13.4403 12.1544 13.1564 12.3015L8.80262 14.5567C8.55507 14.685 8.28034 14.7519 8.00153 14.7519C7.72273 14.7519 7.448 14.685 7.20044 14.5567L2.8467 12.3015C2.56143 12.1537 2.32261 11.9299 2.15664 11.6548C1.99066 11.3798 1.90402 11.0641 1.90629 10.7429V5.51837C1.90661 5.21298 1.98722 4.91304 2.14006 4.64864C2.29289 4.38424 2.51256 4.16467 2.77704 4.01198Z" stroke="#7B7B7B" stroke-width="1.5" stroke-linecap="round" stroke-linejoin="round"/>
</g>
<defs>
<clipPath id="clip0_2633_1006">
<rect width="16" height="16" fill="white"/>
</clipPath>
</defs>
</svg>
