<svg width="16" height="16" viewBox="0 0 16 16" fill="none" xmlns="http://www.w3.org/2000/svg">
<path d="M8 9.45453C8.80332 9.45453 9.45455 8.80331 9.45455 7.99999C9.45455 7.19666 8.80332 6.54544 8 6.54544C7.19668 6.54544 6.54546 7.19666 6.54546 7.99999C6.54546 8.80331 7.19668 9.45453 8 9.45453Z" stroke="#7B7B7B" stroke-width="1.5" stroke-linecap="round" stroke-linejoin="round"/>
<path d="M14.3709 8.45819V7.54183C14.369 7.28781 14.2672 7.04473 14.0876 6.86511C13.908 6.68548 13.6649 6.58373 13.4109 6.58183C13.2287 6.58287 13.0501 6.53126 12.8966 6.4332C12.7431 6.33515 12.6211 6.19482 12.5454 6.0291C12.3961 5.69402 12.2055 5.37886 11.9782 5.09092C11.8712 4.94195 11.8095 4.76525 11.8004 4.58206C11.7914 4.39887 11.8354 4.21697 11.9273 4.05819C11.991 3.9495 12.0326 3.82924 12.0495 3.70437C12.0664 3.57951 12.0584 3.45253 12.026 3.33078C11.9935 3.20903 11.9372 3.09493 11.8603 2.99508C11.7835 2.89523 11.6876 2.81163 11.5782 2.7491L10.7854 2.25456C10.5641 2.13033 10.3028 2.09807 10.0579 2.16474C9.81306 2.2314 9.60418 2.39165 9.47636 2.61092C9.38275 2.77358 9.24286 2.9047 9.07449 2.98759C8.90612 3.07048 8.7169 3.10138 8.5309 3.07637C8.17803 3.03758 7.82196 3.03758 7.46909 3.07637C7.28656 3.0969 7.102 3.06381 6.93798 2.98115C6.77395 2.89849 6.63755 2.76984 6.54545 2.61092C6.48215 2.49847 6.39698 2.39982 6.29497 2.32078C6.19296 2.24174 6.07616 2.18392 5.95146 2.15071C5.82676 2.1175 5.69668 2.10958 5.56887 2.12742C5.44106 2.14525 5.31811 2.18848 5.20727 2.25456L4.42181 2.71274C4.31241 2.77526 4.2165 2.85887 4.13964 2.95872C4.06277 3.05856 4.00648 3.17266 3.97401 3.29441C3.94154 3.41617 3.93355 3.54315 3.95049 3.66801C3.96744 3.79287 4.00898 3.91313 4.07272 4.02183C4.17228 4.18463 4.22066 4.37358 4.21158 4.5642C4.2025 4.75482 4.13639 4.93831 4.02181 5.09092C3.79492 5.38832 3.60674 5.71334 3.46181 6.05819C3.38564 6.22505 3.26257 6.36615 3.10761 6.46429C2.95265 6.56243 2.77249 6.61338 2.58909 6.61092C2.33448 6.61092 2.0903 6.71206 1.91026 6.8921C1.73023 7.07213 1.62909 7.31631 1.62909 7.57092V8.48728C1.62908 8.74257 1.72999 8.9875 1.90982 9.16869C2.08965 9.34988 2.33381 9.45264 2.58909 9.45456C2.77249 9.4521 2.95265 9.50305 3.10761 9.60119C3.26257 9.69933 3.38564 9.84043 3.46181 10.0073C3.61153 10.3293 3.79955 10.6321 4.02181 10.9091C4.12881 11.0581 4.19052 11.2348 4.19955 11.418C4.20858 11.6012 4.16454 11.7831 4.07272 11.9418C4.00898 12.0505 3.96744 12.1708 3.95049 12.2956C3.93355 12.4205 3.94154 12.5475 3.97401 12.6692C4.00648 12.791 4.06277 12.9051 4.13964 13.0049C4.2165 13.1048 4.31241 13.1884 4.42181 13.2509L5.20727 13.7091C5.31593 13.7767 5.43693 13.8221 5.56325 13.8426C5.68958 13.8631 5.81871 13.8583 5.94318 13.8285C6.06765 13.7988 6.18497 13.7446 6.28835 13.6692C6.39174 13.5937 6.47912 13.4985 6.54545 13.3891C6.63905 13.2264 6.77894 13.0953 6.94731 13.0124C7.11568 12.9295 7.30491 12.8986 7.4909 12.9236C7.84378 12.9624 8.19985 12.9624 8.55272 12.9236C8.73871 12.8986 8.92794 12.9295 9.09631 13.0124C9.26468 13.0953 9.40457 13.2264 9.49818 13.3891C9.62599 13.6084 9.83487 13.7686 10.0798 13.8353C10.3247 13.9019 10.5859 13.8697 10.8073 13.7455L11.6 13.2873C11.7094 13.2248 11.8053 13.1412 11.8822 13.0413C11.959 12.9415 12.0153 12.8274 12.0478 12.7056C12.0803 12.5839 12.0883 12.4569 12.0713 12.332C12.0544 12.2071 12.0128 12.0869 11.9491 11.9782C11.8464 11.8175 11.7943 11.6298 11.7995 11.4392C11.8047 11.2486 11.8669 11.0639 11.9782 10.9091C12.2051 10.6117 12.3932 10.2867 12.5382 9.94183C12.623 9.78832 12.7489 9.66145 12.9018 9.5754C13.0546 9.48934 13.2284 9.4475 13.4036 9.45456C13.5331 9.45461 13.6613 9.42867 13.7806 9.37825C13.8999 9.32783 14.0079 9.25397 14.0981 9.16104C14.1883 9.06812 14.2589 8.95803 14.3058 8.83729C14.3527 8.71656 14.3748 8.58764 14.3709 8.45819Z" stroke="#7B7B7B" stroke-width="1.5" stroke-linecap="round" stroke-linejoin="round"/>
</svg>
