<svg width="13" height="13" viewBox="0 0 13 13" fill="none" xmlns="http://www.w3.org/2000/svg">
<path d="M6.49999 7.68187C7.15269 7.68187 7.68181 7.15276 7.68181 6.50006C7.68181 5.84736 7.15269 5.31824 6.49999 5.31824C5.84729 5.31824 5.31818 5.84736 5.31818 6.50006C5.31818 7.15276 5.84729 7.68187 6.49999 7.68187Z" stroke="#BBBBBB" stroke-width="1.5" stroke-linecap="round" stroke-linejoin="round"/>
<path d="M11.6765 6.87225V6.1277C11.675 5.92131 11.5923 5.72381 11.4463 5.57786C11.3004 5.43192 11.1029 5.34925 10.8965 5.3477C10.7485 5.34855 10.6034 5.30661 10.4786 5.22694C10.3539 5.14727 10.2548 5.03326 10.1933 4.89861C10.072 4.62635 9.91713 4.37029 9.73241 4.13634C9.64548 4.01529 9.59534 3.87173 9.588 3.72289C9.58066 3.57405 9.61644 3.42625 9.69105 3.29725C9.74284 3.20893 9.77659 3.11122 9.79036 3.00977C9.80413 2.90832 9.79763 2.80514 9.77125 2.70622C9.74487 2.6073 9.69913 2.51459 9.63668 2.43347C9.57423 2.35234 9.4963 2.28441 9.40741 2.23361L8.76332 1.83179C8.5835 1.73086 8.3712 1.70465 8.17223 1.75881C7.97325 1.81298 7.80354 1.94318 7.69969 2.12134C7.62363 2.2535 7.50997 2.36003 7.37317 2.42738C7.23637 2.49473 7.08262 2.51984 6.9315 2.49952C6.64479 2.468 6.35549 2.468 6.06878 2.49952C5.92047 2.51619 5.77052 2.48931 5.63725 2.42214C5.50398 2.35498 5.39315 2.25046 5.31832 2.12134C5.26689 2.02997 5.19769 1.94981 5.11481 1.8856C5.03192 1.82138 4.93703 1.7744 4.83571 1.74742C4.73439 1.72043 4.6287 1.714 4.52485 1.72849C4.42101 1.74298 4.32111 1.7781 4.23105 1.83179L3.59287 2.20406C3.50398 2.25487 3.42605 2.3228 3.3636 2.40392C3.30115 2.48504 3.25541 2.57775 3.22903 2.67668C3.20265 2.7756 3.19615 2.87877 3.20992 2.98022C3.22369 3.08167 3.25744 3.17938 3.30923 3.2677C3.39012 3.39998 3.42943 3.5535 3.42205 3.70838C3.41468 3.86325 3.36096 4.01234 3.26787 4.13634C3.08352 4.37797 2.93062 4.64206 2.81287 4.92225C2.75098 5.05782 2.65098 5.17246 2.52508 5.2522C2.39918 5.33194 2.25279 5.37333 2.10378 5.37134C1.89691 5.37134 1.69851 5.45351 1.55223 5.59979C1.40595 5.74607 1.32378 5.94447 1.32378 6.15134V6.89588C1.32377 7.1033 1.40576 7.30231 1.55187 7.44952C1.69798 7.59674 1.89637 7.68023 2.10378 7.68179C2.25279 7.6798 2.39918 7.72119 2.52508 7.80093C2.65098 7.88067 2.75098 7.99531 2.81287 8.13088C2.93451 8.39254 3.08728 8.63856 3.26787 8.86361C3.3548 8.98465 3.40494 9.12821 3.41228 9.27706C3.41962 9.4259 3.38384 9.5737 3.30923 9.7027C3.25744 9.79102 3.22369 9.88873 3.20992 9.99018C3.19615 10.0916 3.20265 10.1948 3.22903 10.2937C3.25541 10.3926 3.30115 10.4854 3.3636 10.5665C3.42605 10.6476 3.50398 10.7155 3.59287 10.7663L4.23105 11.1386C4.31934 11.1935 4.41765 11.2304 4.52029 11.2471C4.62293 11.2637 4.72785 11.2598 4.82898 11.2357C4.93011 11.2115 5.02543 11.1675 5.10943 11.1062C5.19343 11.0449 5.26443 10.9675 5.31832 10.8786C5.39437 10.7464 5.50804 10.6399 5.64484 10.5726C5.78164 10.5052 5.93538 10.4801 6.0865 10.5004C6.37322 10.5319 6.66252 10.5319 6.94923 10.5004C7.10035 10.4801 7.2541 10.5052 7.3909 10.5726C7.5277 10.6399 7.64136 10.7464 7.71741 10.8786C7.82127 11.0568 7.99098 11.187 8.18995 11.2411C8.38893 11.2953 8.60122 11.2691 8.78105 11.1682L9.42514 10.7959C9.51403 10.7451 9.59195 10.6771 9.65441 10.596C9.71686 10.5149 9.7626 10.4222 9.78898 10.3233C9.81536 10.2243 9.82185 10.1212 9.80809 10.0197C9.79432 9.91827 9.76057 9.82056 9.70878 9.73224C9.62535 9.60171 9.583 9.44915 9.58721 9.2943C9.59143 9.13944 9.64201 8.98941 9.73241 8.86361C9.91676 8.62197 10.0697 8.35789 10.1874 8.0777C10.2564 7.95298 10.3586 7.84989 10.4828 7.77997C10.607 7.71005 10.7482 7.67606 10.8906 7.68179C10.9958 7.68184 11.1 7.66075 11.1969 7.61979C11.2938 7.57882 11.3815 7.51881 11.4548 7.44331C11.5281 7.36781 11.5855 7.27836 11.6236 7.18026C11.6617 7.08217 11.6797 6.97742 11.6765 6.87225Z" stroke="#BBBBBB" stroke-width="1.5" stroke-linecap="round" stroke-linejoin="round"/>
</svg>
