<svg width="16" height="16" viewBox="0 0 16 16" fill="none" xmlns="http://www.w3.org/2000/svg">
<path d="M11.5306 10.47C11.6005 10.5396 11.656 10.6224 11.6938 10.7136C11.7317 10.8048 11.7512 10.9025 11.7512 11.0012C11.7512 11.0999 11.7317 11.1977 11.6938 11.2888C11.656 11.38 11.6005 11.4628 11.5306 11.5325L8.5306 14.5325C8.46092 14.6024 8.37813 14.6579 8.28696 14.6957C8.1958 14.7336 8.09806 14.7531 7.99935 14.7531C7.90064 14.7531 7.8029 14.7336 7.71173 14.6957C7.62057 14.6579 7.53778 14.6024 7.4681 14.5325L4.4681 11.5325C4.3272 11.3916 4.24805 11.2005 4.24805 11.0012C4.24805 10.802 4.3272 10.6109 4.4681 10.47C4.60899 10.3291 4.80009 10.2499 4.99935 10.2499C5.19861 10.2499 5.3897 10.3291 5.5306 10.47L7.99997 12.9381L10.4693 10.4681C10.5391 10.3985 10.6219 10.3433 10.7131 10.3057C10.8042 10.2681 10.9018 10.2489 11.0004 10.2491C11.0989 10.2492 11.1965 10.2688 11.2875 10.3067C11.3784 10.3446 11.4611 10.4001 11.5306 10.47ZM5.5306 5.53247L7.99997 3.06309L10.4693 5.53309C10.6102 5.67399 10.8013 5.75314 11.0006 5.75314C11.1999 5.75314 11.391 5.67399 11.5318 5.53309C11.6727 5.3922 11.7519 5.2011 11.7519 5.00184C11.7519 4.80258 11.6727 4.61149 11.5318 4.47059L8.53185 1.47059C8.46217 1.40067 8.37937 1.34519 8.28821 1.30734C8.19705 1.26949 8.09931 1.25 8.0006 1.25C7.90189 1.25 7.80415 1.26949 7.71298 1.30734C7.62182 1.34519 7.53903 1.40067 7.46935 1.47059L4.46935 4.47059C4.32845 4.61149 4.2493 4.80258 4.2493 5.00184C4.2493 5.2011 4.32845 5.3922 4.46935 5.53309C4.61024 5.67399 4.80134 5.75314 5.0006 5.75314C5.19986 5.75314 5.39095 5.67399 5.53185 5.53309L5.5306 5.53247Z" fill="#BBBBBB"/>
</svg>
