<svg width="11" height="11" viewBox="0 0 11 11" fill="none" xmlns="http://www.w3.org/2000/svg">
<path d="M8.76562 2.75V7.21875C8.76562 7.3555 8.7113 7.48665 8.6146 7.58335C8.5179 7.68005 8.38675 7.73438 8.25 7.73438C8.11324 7.73438 7.98209 7.68005 7.88539 7.58335C7.7887 7.48665 7.73437 7.3555 7.73437 7.21875V3.99609L3.1148 8.6148C3.01793 8.71167 2.88656 8.76609 2.74957 8.76609C2.61258 8.76609 2.4812 8.71167 2.38433 8.6148C2.28747 8.51794 2.23305 8.38656 2.23305 8.24957C2.23305 8.11258 2.28747 7.9812 2.38433 7.88434L7.0039 3.26562H3.78125C3.64449 3.26562 3.51334 3.2113 3.41664 3.1146C3.31995 3.0179 3.26562 2.88675 3.26562 2.75C3.26562 2.61325 3.31995 2.4821 3.41664 2.3854C3.51334 2.2887 3.64449 2.23438 3.78125 2.23438H8.25C8.38675 2.23438 8.5179 2.2887 8.6146 2.3854C8.7113 2.4821 8.76562 2.61325 8.76562 2.75Z" fill="#BBBBBB"/>
</svg>
