<svg width="24" height="15" viewBox="0 0 24 15" fill="none" xmlns="http://www.w3.org/2000/svg">
<g clip-path="url(#clip0_2633_1022)">
<mask id="mask0_2633_1022" style="mask-type:luminance" maskUnits="userSpaceOnUse" x="0" y="0" width="24" height="14">
<path d="M24 0H0V14H24V0Z" fill="white"/>
</mask>
<g mask="url(#mask0_2633_1022)">
<path d="M7.99992 4.66667H16V0H12.1786C9.87074 0 7.99992 0 7.99992 2.44709V4.66667Z" fill="url(#paint0_linear_2633_1022)"/>
<path d="M16 9.33327H7.99992V13.9999H11.8213C14.129 13.9999 16 13.9999 16 11.5529V9.33327Z" fill="url(#paint1_linear_2633_1022)"/>
<path d="M16 0H8.02667H0L3.91802e-07 9.33334H8.02667V4.66751L8.02555 4.46984C8.01146 2.00536 10.0054 0 12.4699 0H16Z" fill="#00AF66"/>
<path d="M7.99992 13.9999H15.9732H23.9999V4.66665H15.9732V9.33246L15.9744 9.53013C15.9884 11.9946 13.9945 13.9999 11.53 13.9999H7.99992Z" fill="#00AF66"/>
</g>
</g>
<defs>
<linearGradient id="paint0_linear_2633_1022" x1="16" y1="2.33333" x2="7.99992" y2="2.33333" gradientUnits="userSpaceOnUse">
<stop stop-color="#00AF66"/>
<stop offset="1" stop-color="#285C4D"/>
</linearGradient>
<linearGradient id="paint1_linear_2633_1022" x1="7.99992" y1="11.6666" x2="16" y2="11.6666" gradientUnits="userSpaceOnUse">
<stop stop-color="#00AF66"/>
<stop offset="1" stop-color="#285C4D"/>
</linearGradient>
<clipPath id="clip0_2633_1022">
<rect width="24" height="14.04" fill="white"/>
</clipPath>
</defs>
</svg>
